<mxfile host="app.diagrams.net" modified="2023-04-20T13:12:02.886Z" agent="Mozilla/5.0 (Windows NT 10.0; Win64; x64) AppleWebKit/537.36 (KHTML, like Gecko) Chrome/112.0.0.0 Safari/537.36 Edg/112.0.1722.48" etag="zWp5KtxUu44OGDf1J_UN" version="21.2.1" type="github">
  <diagram name="第 1 页" id="0Jy-A7RiXhqcNDoZxx1T">
    <mxGraphModel dx="1050" dy="573" grid="1" gridSize="10" guides="1" tooltips="1" connect="1" arrows="1" fold="1" page="1" pageScale="1" pageWidth="827" pageHeight="1169" math="0" shadow="0">
      <root>
        <mxCell id="0" />
        <mxCell id="1" parent="0" />
        <mxCell id="8EEO7dM0-29UcOphZMMc-1" value="质检员" style="shape=umlActor;verticalLabelPosition=bottom;verticalAlign=top;html=1;outlineConnect=0;" vertex="1" parent="1">
          <mxGeometry x="10" y="60" width="30" height="60" as="geometry" />
        </mxCell>
        <mxCell id="8EEO7dM0-29UcOphZMMc-5" value="出入库单" style="ellipse;whiteSpace=wrap;html=1;" vertex="1" parent="1">
          <mxGeometry x="150" y="60" width="110" height="60" as="geometry" />
        </mxCell>
        <mxCell id="8EEO7dM0-29UcOphZMMc-6" value="新增商品" style="ellipse;whiteSpace=wrap;html=1;" vertex="1" parent="1">
          <mxGeometry x="460" y="60" width="110" height="60" as="geometry" />
        </mxCell>
        <mxCell id="8EEO7dM0-29UcOphZMMc-9" value="" style="endArrow=open;endFill=1;endSize=12;html=1;rounded=0;exitX=0.5;exitY=0.5;exitDx=0;exitDy=0;exitPerimeter=0;" edge="1" parent="1" source="8EEO7dM0-29UcOphZMMc-1" target="8EEO7dM0-29UcOphZMMc-5">
          <mxGeometry width="160" relative="1" as="geometry">
            <mxPoint x="200" y="280" as="sourcePoint" />
            <mxPoint x="360" y="280" as="targetPoint" />
          </mxGeometry>
        </mxCell>
        <mxCell id="8EEO7dM0-29UcOphZMMc-13" value="&amp;lt;&amp;lt;extend&amp;gt;&amp;gt;" style="html=1;verticalAlign=bottom;endArrow=open;dashed=1;endSize=8;edgeStyle=elbowEdgeStyle;elbow=vertical;curved=0;rounded=0;exitX=0.025;exitY=0.683;exitDx=0;exitDy=0;exitPerimeter=0;" edge="1" parent="1" target="8EEO7dM0-29UcOphZMMc-5">
          <mxGeometry x="-0.0803" y="-10" relative="1" as="geometry">
            <mxPoint x="462.75" y="90.98000000000002" as="sourcePoint" />
            <mxPoint x="300" y="70" as="targetPoint" />
            <Array as="points">
              <mxPoint x="310" y="90" />
            </Array>
            <mxPoint as="offset" />
          </mxGeometry>
        </mxCell>
        <mxCell id="8EEO7dM0-29UcOphZMMc-15" value="库存管理员" style="shape=umlActor;verticalLabelPosition=bottom;verticalAlign=top;html=1;outlineConnect=0;" vertex="1" parent="1">
          <mxGeometry x="20" y="330" width="30" height="60" as="geometry" />
        </mxCell>
        <mxCell id="8EEO7dM0-29UcOphZMMc-17" value="对入库单的增删查改" style="ellipse;whiteSpace=wrap;html=1;" vertex="1" parent="1">
          <mxGeometry x="170" y="220" width="110" height="60" as="geometry" />
        </mxCell>
        <mxCell id="8EEO7dM0-29UcOphZMMc-19" value="对出库单的增删查改" style="ellipse;whiteSpace=wrap;html=1;" vertex="1" parent="1">
          <mxGeometry x="170" y="290" width="110" height="60" as="geometry" />
        </mxCell>
        <mxCell id="8EEO7dM0-29UcOphZMMc-20" value="" style="endArrow=open;endFill=1;endSize=12;html=1;rounded=0;" edge="1" parent="1" source="8EEO7dM0-29UcOphZMMc-15">
          <mxGeometry width="160" relative="1" as="geometry">
            <mxPoint x="45" y="319.5" as="sourcePoint" />
            <mxPoint x="170" y="319.5" as="targetPoint" />
          </mxGeometry>
        </mxCell>
        <mxCell id="8EEO7dM0-29UcOphZMMc-21" value="" style="endArrow=open;endFill=1;endSize=12;html=1;rounded=0;" edge="1" parent="1" source="8EEO7dM0-29UcOphZMMc-15" target="8EEO7dM0-29UcOphZMMc-17">
          <mxGeometry width="160" relative="1" as="geometry">
            <mxPoint x="55" y="180" as="sourcePoint" />
            <mxPoint x="180" y="180" as="targetPoint" />
          </mxGeometry>
        </mxCell>
        <mxCell id="8EEO7dM0-29UcOphZMMc-22" value="对调拨单的增删查改" style="ellipse;whiteSpace=wrap;html=1;" vertex="1" parent="1">
          <mxGeometry x="170" y="360" width="110" height="60" as="geometry" />
        </mxCell>
        <mxCell id="8EEO7dM0-29UcOphZMMc-23" value="" style="endArrow=open;endFill=1;endSize=12;html=1;rounded=0;entryX=0;entryY=0.5;entryDx=0;entryDy=0;" edge="1" parent="1" source="8EEO7dM0-29UcOphZMMc-15" target="8EEO7dM0-29UcOphZMMc-22">
          <mxGeometry width="160" relative="1" as="geometry">
            <mxPoint x="45" y="399.5" as="sourcePoint" />
            <mxPoint x="170" y="399.5" as="targetPoint" />
          </mxGeometry>
        </mxCell>
        <mxCell id="8EEO7dM0-29UcOphZMMc-24" value="对组装单的增删查改" style="ellipse;whiteSpace=wrap;html=1;" vertex="1" parent="1">
          <mxGeometry x="170" y="440" width="110" height="60" as="geometry" />
        </mxCell>
        <mxCell id="8EEO7dM0-29UcOphZMMc-25" value="" style="endArrow=open;endFill=1;endSize=12;html=1;rounded=0;entryX=0.036;entryY=0.317;entryDx=0;entryDy=0;entryPerimeter=0;" edge="1" parent="1" source="8EEO7dM0-29UcOphZMMc-15" target="8EEO7dM0-29UcOphZMMc-24">
          <mxGeometry width="160" relative="1" as="geometry">
            <mxPoint x="45" y="469.5" as="sourcePoint" />
            <mxPoint x="180" y="460" as="targetPoint" />
          </mxGeometry>
        </mxCell>
        <mxCell id="8EEO7dM0-29UcOphZMMc-27" value="对拆卸单的增删查改" style="ellipse;whiteSpace=wrap;html=1;" vertex="1" parent="1">
          <mxGeometry x="170" y="510" width="110" height="60" as="geometry" />
        </mxCell>
        <mxCell id="8EEO7dM0-29UcOphZMMc-28" value="" style="endArrow=open;endFill=1;endSize=12;html=1;rounded=0;" edge="1" parent="1" source="8EEO7dM0-29UcOphZMMc-15">
          <mxGeometry width="160" relative="1" as="geometry">
            <mxPoint x="60" y="390" as="sourcePoint" />
            <mxPoint x="170" y="539.5" as="targetPoint" />
          </mxGeometry>
        </mxCell>
        <mxCell id="8EEO7dM0-29UcOphZMMc-29" value="登录系统" style="ellipse;whiteSpace=wrap;html=1;" vertex="1" parent="1">
          <mxGeometry x="360" y="360" width="110" height="60" as="geometry" />
        </mxCell>
        <mxCell id="8EEO7dM0-29UcOphZMMc-33" value="&amp;lt;&amp;lt;include&amp;gt;&amp;gt;" style="html=1;verticalAlign=bottom;endArrow=open;dashed=1;endSize=8;elbow=vertical;rounded=0;exitX=1;exitY=1;exitDx=0;exitDy=0;" edge="1" parent="1" source="8EEO7dM0-29UcOphZMMc-17" target="8EEO7dM0-29UcOphZMMc-29">
          <mxGeometry relative="1" as="geometry">
            <mxPoint x="380" y="310" as="sourcePoint" />
            <mxPoint x="250" y="350" as="targetPoint" />
          </mxGeometry>
        </mxCell>
        <mxCell id="8EEO7dM0-29UcOphZMMc-35" value="&amp;lt;&amp;lt;include&amp;gt;&amp;gt;" style="html=1;verticalAlign=bottom;endArrow=open;dashed=1;endSize=8;elbow=vertical;rounded=0;entryX=0.025;entryY=0.25;entryDx=0;entryDy=0;entryPerimeter=0;" edge="1" parent="1" source="8EEO7dM0-29UcOphZMMc-19" target="8EEO7dM0-29UcOphZMMc-29">
          <mxGeometry relative="1" as="geometry">
            <mxPoint x="274" y="281" as="sourcePoint" />
            <mxPoint x="394" y="375" as="targetPoint" />
          </mxGeometry>
        </mxCell>
        <mxCell id="8EEO7dM0-29UcOphZMMc-36" value="&amp;lt;&amp;lt;include&amp;gt;&amp;gt;" style="html=1;verticalAlign=bottom;endArrow=open;dashed=1;endSize=8;elbow=vertical;rounded=0;entryX=0;entryY=0.5;entryDx=0;entryDy=0;" edge="1" parent="1" source="8EEO7dM0-29UcOphZMMc-22" target="8EEO7dM0-29UcOphZMMc-29">
          <mxGeometry relative="1" as="geometry">
            <mxPoint x="284" y="291" as="sourcePoint" />
            <mxPoint x="404" y="385" as="targetPoint" />
          </mxGeometry>
        </mxCell>
        <mxCell id="8EEO7dM0-29UcOphZMMc-37" value="&amp;lt;&amp;lt;include&amp;gt;&amp;gt;" style="html=1;verticalAlign=bottom;endArrow=open;dashed=1;endSize=8;elbow=vertical;rounded=0;exitX=1;exitY=0.5;exitDx=0;exitDy=0;entryX=0.2;entryY=0.983;entryDx=0;entryDy=0;entryPerimeter=0;" edge="1" parent="1" source="8EEO7dM0-29UcOphZMMc-24" target="8EEO7dM0-29UcOphZMMc-29">
          <mxGeometry relative="1" as="geometry">
            <mxPoint x="294" y="301" as="sourcePoint" />
            <mxPoint x="414" y="395" as="targetPoint" />
          </mxGeometry>
        </mxCell>
        <mxCell id="8EEO7dM0-29UcOphZMMc-38" value="&amp;lt;&amp;lt;include&amp;gt;&amp;gt;" style="html=1;verticalAlign=bottom;endArrow=open;dashed=1;endSize=8;elbow=vertical;rounded=0;exitX=1;exitY=0.5;exitDx=0;exitDy=0;entryX=0.273;entryY=1;entryDx=0;entryDy=0;entryPerimeter=0;" edge="1" parent="1" source="8EEO7dM0-29UcOphZMMc-27" target="8EEO7dM0-29UcOphZMMc-29">
          <mxGeometry relative="1" as="geometry">
            <mxPoint x="304" y="311" as="sourcePoint" />
            <mxPoint x="424" y="405" as="targetPoint" />
          </mxGeometry>
        </mxCell>
        <mxCell id="8EEO7dM0-29UcOphZMMc-39" value="&amp;lt;&amp;lt;include&amp;gt;&amp;gt;" style="html=1;verticalAlign=bottom;endArrow=open;dashed=1;endSize=8;elbow=vertical;rounded=0;exitX=1;exitY=1;exitDx=0;exitDy=0;entryX=0.324;entryY=-0.043;entryDx=0;entryDy=0;entryPerimeter=0;" edge="1" parent="1" source="8EEO7dM0-29UcOphZMMc-5" target="8EEO7dM0-29UcOphZMMc-29">
          <mxGeometry relative="1" as="geometry">
            <mxPoint x="304" y="251" as="sourcePoint" />
            <mxPoint x="424" y="345" as="targetPoint" />
          </mxGeometry>
        </mxCell>
        <mxCell id="8EEO7dM0-29UcOphZMMc-40" value="管理仓库" style="ellipse;whiteSpace=wrap;html=1;" vertex="1" parent="1">
          <mxGeometry x="530" y="140" width="110" height="60" as="geometry" />
        </mxCell>
        <mxCell id="8EEO7dM0-29UcOphZMMc-41" value="批量审核入库单" style="ellipse;whiteSpace=wrap;html=1;" vertex="1" parent="1">
          <mxGeometry x="530" y="220" width="110" height="60" as="geometry" />
        </mxCell>
        <mxCell id="8EEO7dM0-29UcOphZMMc-42" value="统计库存信息" style="ellipse;whiteSpace=wrap;html=1;" vertex="1" parent="1">
          <mxGeometry x="530" y="370" width="110" height="60" as="geometry" />
        </mxCell>
        <mxCell id="8EEO7dM0-29UcOphZMMc-43" value="批量审核出库单" style="ellipse;whiteSpace=wrap;html=1;" vertex="1" parent="1">
          <mxGeometry x="530" y="450" width="110" height="60" as="geometry" />
        </mxCell>
        <mxCell id="8EEO7dM0-29UcOphZMMc-44" value="批量审核调拨单" style="ellipse;whiteSpace=wrap;html=1;" vertex="1" parent="1">
          <mxGeometry x="530" y="520" width="110" height="60" as="geometry" />
        </mxCell>
        <mxCell id="8EEO7dM0-29UcOphZMMc-45" value="批量审核拆卸单" style="ellipse;whiteSpace=wrap;html=1;" vertex="1" parent="1">
          <mxGeometry x="530" y="610" width="110" height="60" as="geometry" />
        </mxCell>
        <mxCell id="8EEO7dM0-29UcOphZMMc-46" value="批量审核组装单" style="ellipse;whiteSpace=wrap;html=1;" vertex="1" parent="1">
          <mxGeometry x="530" y="300" width="110" height="60" as="geometry" />
        </mxCell>
        <mxCell id="8EEO7dM0-29UcOphZMMc-47" value="&amp;lt;&amp;lt;include&amp;gt;&amp;gt;" style="html=1;verticalAlign=bottom;endArrow=open;dashed=1;endSize=8;elbow=vertical;rounded=0;exitX=0;exitY=0.683;exitDx=0;exitDy=0;entryX=0.651;entryY=-0.01;entryDx=0;entryDy=0;entryPerimeter=0;exitPerimeter=0;" edge="1" parent="1" source="8EEO7dM0-29UcOphZMMc-40" target="8EEO7dM0-29UcOphZMMc-29">
          <mxGeometry relative="1" as="geometry">
            <mxPoint x="254" y="121" as="sourcePoint" />
            <mxPoint x="406" y="367" as="targetPoint" />
          </mxGeometry>
        </mxCell>
        <mxCell id="8EEO7dM0-29UcOphZMMc-48" value="&amp;lt;&amp;lt;include&amp;gt;&amp;gt;" style="html=1;verticalAlign=bottom;endArrow=open;dashed=1;endSize=8;elbow=vertical;rounded=0;exitX=0.091;exitY=0.5;exitDx=0;exitDy=0;exitPerimeter=0;" edge="1" parent="1" source="8EEO7dM0-29UcOphZMMc-41" target="8EEO7dM0-29UcOphZMMc-29">
          <mxGeometry relative="1" as="geometry">
            <mxPoint x="264" y="131" as="sourcePoint" />
            <mxPoint x="416" y="377" as="targetPoint" />
          </mxGeometry>
        </mxCell>
        <mxCell id="8EEO7dM0-29UcOphZMMc-49" value="&amp;lt;&amp;lt;include&amp;gt;&amp;gt;" style="html=1;verticalAlign=bottom;endArrow=open;dashed=1;endSize=8;elbow=vertical;rounded=0;exitX=0.007;exitY=0.643;exitDx=0;exitDy=0;exitPerimeter=0;" edge="1" parent="1" source="8EEO7dM0-29UcOphZMMc-46">
          <mxGeometry relative="1" as="geometry">
            <mxPoint x="274" y="141" as="sourcePoint" />
            <mxPoint x="460" y="370" as="targetPoint" />
          </mxGeometry>
        </mxCell>
        <mxCell id="8EEO7dM0-29UcOphZMMc-50" value="&amp;lt;&amp;lt;include&amp;gt;&amp;gt;" style="html=1;verticalAlign=bottom;endArrow=open;dashed=1;endSize=8;elbow=vertical;rounded=0;exitX=0;exitY=0.5;exitDx=0;exitDy=0;" edge="1" parent="1" source="8EEO7dM0-29UcOphZMMc-42" target="8EEO7dM0-29UcOphZMMc-29">
          <mxGeometry relative="1" as="geometry">
            <mxPoint x="284" y="151" as="sourcePoint" />
            <mxPoint x="436" y="397" as="targetPoint" />
          </mxGeometry>
        </mxCell>
        <mxCell id="8EEO7dM0-29UcOphZMMc-51" value="&amp;lt;&amp;lt;include&amp;gt;&amp;gt;" style="html=1;verticalAlign=bottom;endArrow=open;dashed=1;endSize=8;elbow=vertical;rounded=0;entryX=1;entryY=1;entryDx=0;entryDy=0;" edge="1" parent="1" source="8EEO7dM0-29UcOphZMMc-43" target="8EEO7dM0-29UcOphZMMc-29">
          <mxGeometry relative="1" as="geometry">
            <mxPoint x="294" y="161" as="sourcePoint" />
            <mxPoint x="446" y="407" as="targetPoint" />
          </mxGeometry>
        </mxCell>
        <mxCell id="8EEO7dM0-29UcOphZMMc-52" value="&amp;lt;&amp;lt;include&amp;gt;&amp;gt;" style="html=1;verticalAlign=bottom;endArrow=open;dashed=1;endSize=8;elbow=vertical;rounded=0;exitX=0.091;exitY=0.167;exitDx=0;exitDy=0;entryX=0.324;entryY=-0.043;entryDx=0;entryDy=0;entryPerimeter=0;exitPerimeter=0;" edge="1" parent="1" source="8EEO7dM0-29UcOphZMMc-44">
          <mxGeometry relative="1" as="geometry">
            <mxPoint x="304" y="171" as="sourcePoint" />
            <mxPoint x="456" y="417" as="targetPoint" />
          </mxGeometry>
        </mxCell>
        <mxCell id="8EEO7dM0-29UcOphZMMc-53" value="&amp;lt;&amp;lt;include&amp;gt;&amp;gt;" style="html=1;verticalAlign=bottom;endArrow=open;dashed=1;endSize=8;elbow=vertical;rounded=0;exitX=0.029;exitY=0.343;exitDx=0;exitDy=0;entryX=0.811;entryY=0.977;entryDx=0;entryDy=0;entryPerimeter=0;exitPerimeter=0;" edge="1" parent="1" source="8EEO7dM0-29UcOphZMMc-45" target="8EEO7dM0-29UcOphZMMc-29">
          <mxGeometry relative="1" as="geometry">
            <mxPoint x="314" y="181" as="sourcePoint" />
            <mxPoint x="466" y="427" as="targetPoint" />
          </mxGeometry>
        </mxCell>
        <mxCell id="8EEO7dM0-29UcOphZMMc-54" value="仓库经理" style="shape=umlActor;verticalLabelPosition=bottom;verticalAlign=top;html=1;fontFamily=Helvetica;fontSize=11;fontColor=default;" vertex="1" parent="1">
          <mxGeometry x="730" y="360" width="30" height="60" as="geometry" />
        </mxCell>
        <mxCell id="8EEO7dM0-29UcOphZMMc-55" value="" style="endArrow=open;endFill=1;endSize=12;html=1;rounded=0;entryX=0.982;entryY=0.697;entryDx=0;entryDy=0;entryPerimeter=0;" edge="1" parent="1" target="8EEO7dM0-29UcOphZMMc-40">
          <mxGeometry width="160" relative="1" as="geometry">
            <mxPoint x="730" y="360" as="sourcePoint" />
            <mxPoint x="197" y="282" as="targetPoint" />
          </mxGeometry>
        </mxCell>
        <mxCell id="8EEO7dM0-29UcOphZMMc-56" value="" style="endArrow=open;endFill=1;endSize=12;html=1;rounded=0;entryX=1;entryY=0.5;entryDx=0;entryDy=0;" edge="1" parent="1" target="8EEO7dM0-29UcOphZMMc-41">
          <mxGeometry width="160" relative="1" as="geometry">
            <mxPoint x="730" y="370" as="sourcePoint" />
            <mxPoint x="648" y="192" as="targetPoint" />
          </mxGeometry>
        </mxCell>
        <mxCell id="8EEO7dM0-29UcOphZMMc-57" value="" style="endArrow=open;endFill=1;endSize=12;html=1;rounded=0;entryX=1;entryY=0.5;entryDx=0;entryDy=0;" edge="1" parent="1" target="8EEO7dM0-29UcOphZMMc-46">
          <mxGeometry width="160" relative="1" as="geometry">
            <mxPoint x="730" y="390" as="sourcePoint" />
            <mxPoint x="658" y="202" as="targetPoint" />
          </mxGeometry>
        </mxCell>
        <mxCell id="8EEO7dM0-29UcOphZMMc-58" value="" style="endArrow=open;endFill=1;endSize=12;html=1;rounded=0;" edge="1" parent="1" target="8EEO7dM0-29UcOphZMMc-42">
          <mxGeometry width="160" relative="1" as="geometry">
            <mxPoint x="740" y="400" as="sourcePoint" />
            <mxPoint x="668" y="212" as="targetPoint" />
          </mxGeometry>
        </mxCell>
        <mxCell id="8EEO7dM0-29UcOphZMMc-59" value="" style="endArrow=open;endFill=1;endSize=12;html=1;rounded=0;exitX=0;exitY=1;exitDx=0;exitDy=0;exitPerimeter=0;" edge="1" parent="1" source="8EEO7dM0-29UcOphZMMc-54" target="8EEO7dM0-29UcOphZMMc-43">
          <mxGeometry width="160" relative="1" as="geometry">
            <mxPoint x="785" y="430" as="sourcePoint" />
            <mxPoint x="678" y="222" as="targetPoint" />
          </mxGeometry>
        </mxCell>
        <mxCell id="8EEO7dM0-29UcOphZMMc-61" value="" style="endArrow=open;endFill=1;endSize=12;html=1;rounded=0;entryX=0.953;entryY=0.23;entryDx=0;entryDy=0;entryPerimeter=0;" edge="1" parent="1" target="8EEO7dM0-29UcOphZMMc-44">
          <mxGeometry width="160" relative="1" as="geometry">
            <mxPoint x="720" y="440" as="sourcePoint" />
            <mxPoint x="688" y="232" as="targetPoint" />
          </mxGeometry>
        </mxCell>
        <mxCell id="8EEO7dM0-29UcOphZMMc-62" value="" style="endArrow=open;endFill=1;endSize=12;html=1;rounded=0;entryX=1;entryY=0.5;entryDx=0;entryDy=0;" edge="1" parent="1" target="8EEO7dM0-29UcOphZMMc-45">
          <mxGeometry width="160" relative="1" as="geometry">
            <mxPoint x="730" y="450" as="sourcePoint" />
            <mxPoint x="698" y="242" as="targetPoint" />
          </mxGeometry>
        </mxCell>
      </root>
    </mxGraphModel>
  </diagram>
</mxfile>
